<svg host="65bd71144e" xmlns="http://www.w3.org/2000/svg" style="background: transparent; background-color: transparent;" xmlns:xlink="http://www.w3.org/1999/xlink" version="1.1" width="581px" height="541px" viewBox="-0.5 -0.5 581 541" content="&lt;mxfile&gt;&lt;diagram id=&quot;nsBtUmLpRge6HQRNi2g4&quot; name=&quot;Page-1&quot;&gt;7Vpdb+I4FP01aJ5a5YME+jjQTvdhK1VitPtskjuJFyeObFOgv37txIYkDhQY1DAzSP2IT5xr555zbd/YA3+arZ8ZKtIXGgMZeE68HviPA88bj0P5VwGbCnBd/6FCEoZjje2AGX4HDToaXeIYeIVpSFBKBC544+mI5jlEooEhxuiqWe0HJc1WC5RAw7oCZhEiYFX7F8ci1e8V1Gr/BThJTcuuo+9kyFTWAE9RTFc1yH8a+FNGqaiusvUUiHKe8Uv13Lc9d7cdY5CLYx7wdT/eEFnql9MdExvztpDHX5XTZCmnuQQnMeIpKAuuLKQiI/oSYukm/SCQOV097YCJ3TXdW06XLDKeHWo6EUtAV/NGFaas1x7UL/QMNAPBNrLCaseFoSKt0WAwBgQJ/NbkEmlJJFtz2xZeKZY99hwt39FI29mq12maqN5HP1X3fcvQ2GsaClt2Kh9YduRF7a13UMlsN8vew5Wx7HWwHF4Vy4HTJMc7k+QgaNq5849jWXKBNrVqharA9/fX91uqDIOWaCqL50poaCnoGd5RBjnB/y1A3slBzCEFYDEwbqmLr3BGUCmrmpKiFJP4b7ShS0UeFyhamNKEAZfj/qsRktuCXpB6cUfZowy/01wgogFphwk9aXjNGjPVhK62SrGAWYFKUa7kRKU6RAlBBcfzst/OIT2/AROwPqhUfXfYYsYoqy7kcYeSh+OWVOqqbYwGB3gLLN4mS45z4BzliGAujqTqgFO1p47x3fBU33kdvgo7fOW24/McX9mj5COGXCJLDhHiSuU4t/ylI1NeBxP549wrn0+d8jeQFaYl2IWNbNBVJWOhCXZho6DLpNvRdhvzOsBOkx1tO61Oyh8pkBQVyiPZOlGLvvt5keX3AvHFnlBjcmFmZhFGl3msppoJrxTmOq2BQglNqpaZKWhdoDzeKzzV7Atii7I+mnPBkFoFTrjsAs4TCQad8gxOlWfYDG3fVus22utqbc/054h1Ow7VIhsolcNvudgWkDSle1PtTbVmreD0J9vQUu13QJlEZpChXGBY/BoTkpnMP3WCMplGzXv/UCkXmUqDlKxa9HJALEpV4GN7ar8F/W8T9OGpwnW9/oLe5Hs13c5EOU3NIWG4KMqp6k3OXjfJ3iS7G2uHPUrWTnhfl3OCIyjH25pub4K9CdZk+j2OsSM7eZVGpJPWhez/L7Wo2sb95yyquhIpuRRdqWRK4Qwltzj/neN8dKpe3XF/cT624xwJdCdbgRwhewF1zYHuh58a6H5HoO++mNym9D8g1MenKtbv8ROfb89MljYPbsb9kE7VQS5TsOYm3m67b05otPie4ryCv2FiKu2N+Ppmnv5qXt/LM98pTtnLc43HfnLj7i4cNwhzR2HTxLE7dw/eYTuX25717fT4Cnk2pDaIdnskurUPb4Xc0UR/YOeCRNsz0DUS7XYQ7fVItNva297mB6cy/ZGdCzJt77teI9OezbTXZ0i3Q3F0JtHtoaFt54JE2xsaV0i01xXSfn9Ej1qnYqz1/dFjt/uBoQsybX9huUKmDasNpof9Me23UuXg3LE7GH5g6ILH5eyYnpTJ4aA6ACIZR2LJB15IVM4R4zd5majLLzL3gBhL3r6Yu7KxWgVLMfWc3JwFVQnO9vCdKiCCE6mHx0gyrzKeicpfcITIV30jw3Fcaqydo1WnXb3qvzK7MfaVW8skLKciSk3B1tjJx528Vmx3fMxzO487XeJQhB2jxzKXAIlx8ufSNhx+Gm2yuDvhXMXn7py4//Q/&lt;/diagram&gt;&lt;/mxfile&gt;">
    <defs/>
    <g>
        <g>
            <path d="M 490 210 L 490 135 Q 490 125 490 115 L 490 40" fill="none" stroke="#000000" stroke-miterlimit="10" stroke-dasharray="3 3" pointer-events="stroke" style="stroke: light-dark(rgb(0, 0, 0), rgb(255, 255, 255));"/>
        </g>
        <g>
            <path d="M 290 210 L 290 135 Q 290 125 290 115 L 290 40" fill="none" stroke="#000000" stroke-miterlimit="10" stroke-dasharray="3 3" pointer-events="stroke" style="stroke: light-dark(rgb(0, 0, 0), rgb(255, 255, 255));"/>
        </g>
        <g>
            <path d="M 20 60 L 0 60 L 0 540 L 20 540" fill="#ffffff" stroke="#000000" stroke-miterlimit="10" pointer-events="all" style="fill: light-dark(#ffffff, var(--ge-dark-color, #121212)); stroke: light-dark(rgb(0, 0, 0), rgb(255, 255, 255));"/>
            <path d="M 20 60 L 580 60 L 580 540 L 20 540" fill="none" stroke="#000000" stroke-miterlimit="10" pointer-events="none" style="stroke: light-dark(rgb(0, 0, 0), rgb(255, 255, 255));"/>
            <path d="M 20 60 L 20 540" fill="none" stroke="#000000" stroke-miterlimit="10" pointer-events="none" style="stroke: light-dark(rgb(0, 0, 0), rgb(255, 255, 255));"/>
        </g>
        <g>
            <g transform="translate(-0.5 -0.5)rotate(-90 10 300)">
                <switch>
                    <foreignObject style="overflow: visible; text-align: left;" pointer-events="none" width="100%" height="100%" requiredFeatures="http://www.w3.org/TR/SVG11/feature#Extensibility">
                        <div xmlns="http://www.w3.org/1999/xhtml" style="display: flex; align-items: unsafe center; justify-content: unsafe center; width: 478px; height: 1px; padding-top: 300px; margin-left: -229px;">
                            <div style="box-sizing: border-box; font-size: 0; text-align: center; color: #000000; ">
                                <div style="display: inline-block; font-size: 12px; font-family: &quot;Helvetica&quot;; color: light-dark(#000000, #ffffff); line-height: 1.2; pointer-events: all; font-weight: bold; white-space: normal; word-wrap: normal; ">
                                    Gezamenlijke netbeheerders
                                </div>
                            </div>
                        </div>
                    </foreignObject>
                    <text x="10" y="304" fill="light-dark(#000000, #ffffff)" font-family="&quot;Helvetica&quot;" font-size="12px" text-anchor="middle" font-weight="bold">
                        Gezamenlijke netbeheerders
                    </text>
                </switch>
            </g>
        </g>
        <g>
            <path d="M 40 60 L 20 60 L 20 180 L 40 180" fill="#ffffff" stroke="#000000" stroke-miterlimit="10" pointer-events="all" style="fill: light-dark(#ffffff, var(--ge-dark-color, #121212)); stroke: light-dark(rgb(0, 0, 0), rgb(255, 255, 255));"/>
            <path d="M 40 60 L 580 60 L 580 180 L 40 180" fill="none" stroke="#000000" stroke-miterlimit="10" pointer-events="none" style="stroke: light-dark(rgb(0, 0, 0), rgb(255, 255, 255));"/>
            <path d="M 40 60 L 40 180" fill="none" stroke="#000000" stroke-miterlimit="10" pointer-events="none" style="stroke: light-dark(rgb(0, 0, 0), rgb(255, 255, 255));"/>
        </g>
        <g>
            <g transform="translate(-0.5 -0.5)rotate(-90 30 120)">
                <switch>
                    <foreignObject style="overflow: visible; text-align: left;" pointer-events="none" width="100%" height="100%" requiredFeatures="http://www.w3.org/TR/SVG11/feature#Extensibility">
                        <div xmlns="http://www.w3.org/1999/xhtml" style="display: flex; align-items: unsafe center; justify-content: unsafe center; width: 1px; height: 1px; padding-top: 120px; margin-left: 30px;">
                            <div style="box-sizing: border-box; font-size: 0; text-align: center; color: #000000; ">
                                <div style="display: inline-block; font-size: 12px; font-family: &quot;Helvetica&quot;; color: light-dark(#000000, #ffffff); line-height: 1.2; pointer-events: all; font-weight: bold; white-space: nowrap; ">
                                    Businessanalist
                                </div>
                            </div>
                        </div>
                    </foreignObject>
                    <text x="30" y="124" fill="light-dark(#000000, #ffffff)" font-family="&quot;Helvetica&quot;" font-size="12px" text-anchor="middle" font-weight="bold">
                        Businessanalist
                    </text>
                </switch>
            </g>
        </g>
        <g>
            <path d="M 80 100 C 80 94.48 84.48 90 90 90 L 170 90 C 175.52 90 180 94.48 180 100 L 180 140 C 180 145.52 175.52 150 170 150 L 90 150 C 84.48 150 80 145.52 80 140 L 80 100 Z" fill="#ffffff" stroke="none" pointer-events="all" style="fill: light-dark(#ffffff, var(--ge-dark-color, #121212));"/>
            <path d="M 82 101 L 82 139 C 82 143.97 86.03 148 91 148 L 169 148 C 173.97 148 178 143.97 178 139 L 178 101 C 178 96.03 173.97 92 169 92 L 91 92 C 86.03 92 82 96.03 82 101" fill="transparent" stroke="none" pointer-events="all" style="fill: transparent;"/>
            <path d="M 80 100 C 80 94.48 84.48 90 90 90 L 170 90 C 175.52 90 180 94.48 180 100 L 180 140 C 180 145.52 175.52 150 170 150 L 90 150 C 84.48 150 80 145.52 80 140 L 80 100 Z" fill="none" stroke="#000000" stroke-miterlimit="10" pointer-events="all" style="stroke: light-dark(rgb(0, 0, 0), rgb(255, 255, 255));"/>
        </g>
        <g>
            <g transform="translate(-0.5 -0.5)">
                <switch>
                    <foreignObject style="overflow: visible; text-align: left;" pointer-events="none" width="100%" height="100%" requiredFeatures="http://www.w3.org/TR/SVG11/feature#Extensibility">
                        <div xmlns="http://www.w3.org/1999/xhtml" style="display: flex; align-items: unsafe center; justify-content: unsafe center; width: 92px; height: 1px; padding-top: 120px; margin-left: 84px;">
                            <div style="box-sizing: border-box; font-size: 0; text-align: center; color: #000000; ">
                                <div style="display: inline-block; font-size: 12px; font-family: &quot;Helvetica&quot;; color: light-dark(#000000, #ffffff); line-height: 1.2; pointer-events: all; white-space: normal; word-wrap: normal; ">
                                    Dien usecase in
                                </div>
                            </div>
                        </div>
                    </foreignObject>
                    <text x="130" y="124" fill="light-dark(#000000, #ffffff)" font-family="&quot;Helvetica&quot;" font-size="12px" text-anchor="middle">
                        Dien usecase in
                    </text>
                </switch>
            </g>
        </g>
        <g>
            <path d="M 320 100 C 320 94.48 324.48 90 330 90 L 410 90 C 415.52 90 420 94.48 420 100 L 420 140 C 420 145.52 415.52 150 410 150 L 330 150 C 324.48 150 320 145.52 320 140 L 320 100 Z" fill="#ffffff" stroke="none" pointer-events="all" style="fill: light-dark(#ffffff, var(--ge-dark-color, #121212));"/>
            <path d="M 322 101 L 322 139 C 322 143.97 326.03 148 331 148 L 409 148 C 413.97 148 418 143.97 418 139 L 418 101 C 418 96.03 413.97 92 409 92 L 331 92 C 326.03 92 322 96.03 322 101" fill="transparent" stroke="none" pointer-events="all" style="fill: transparent;"/>
            <path d="M 320 100 C 320 94.48 324.48 90 330 90 L 410 90 C 415.52 90 420 94.48 420 100 L 420 140 C 420 145.52 415.52 150 410 150 L 330 150 C 324.48 150 320 145.52 320 140 L 320 100 Z" fill="none" stroke="#000000" stroke-miterlimit="10" pointer-events="all" style="stroke: light-dark(rgb(0, 0, 0), rgb(255, 255, 255));"/>
        </g>
        <g>
            <g transform="translate(-0.5 -0.5)">
                <switch>
                    <foreignObject style="overflow: visible; text-align: left;" pointer-events="none" width="100%" height="100%" requiredFeatures="http://www.w3.org/TR/SVG11/feature#Extensibility">
                        <div xmlns="http://www.w3.org/1999/xhtml" style="display: flex; align-items: unsafe center; justify-content: unsafe center; width: 92px; height: 1px; padding-top: 120px; margin-left: 324px;">
                            <div style="box-sizing: border-box; font-size: 0; text-align: center; color: #000000; ">
                                <div style="display: inline-block; font-size: 12px; font-family: &quot;Helvetica&quot;; color: light-dark(#000000, #ffffff); line-height: 1.2; pointer-events: all; white-space: normal; word-wrap: normal; ">
                                    Beoordeel tegen usecase
                                </div>
                            </div>
                        </div>
                    </foreignObject>
                    <text x="370" y="124" fill="light-dark(#000000, #ffffff)" font-family="&quot;Helvetica&quot;" font-size="12px" text-anchor="middle">
                        Beoordeel tegen...
                    </text>
                </switch>
            </g>
        </g>
        <g>
            <path d="M 40 180 L 20 180 L 20 300 L 40 300" fill="#ffffff" stroke="#000000" stroke-miterlimit="10" pointer-events="all" style="fill: light-dark(#ffffff, var(--ge-dark-color, #121212)); stroke: light-dark(rgb(0, 0, 0), rgb(255, 255, 255));"/>
            <path d="M 40 180 L 580 180 L 580 300 L 40 300" fill="none" stroke="#000000" stroke-miterlimit="10" pointer-events="none" style="stroke: light-dark(rgb(0, 0, 0), rgb(255, 255, 255));"/>
            <path d="M 40 180 L 40 300" fill="none" stroke="#000000" stroke-miterlimit="10" pointer-events="none" style="stroke: light-dark(rgb(0, 0, 0), rgb(255, 255, 255));"/>
        </g>
        <g>
            <g transform="translate(-0.5 -0.5)rotate(-90 30 240)">
                <switch>
                    <foreignObject style="overflow: visible; text-align: left;" pointer-events="none" width="100%" height="100%" requiredFeatures="http://www.w3.org/TR/SVG11/feature#Extensibility">
                        <div xmlns="http://www.w3.org/1999/xhtml" style="display: flex; align-items: unsafe center; justify-content: unsafe center; width: 1px; height: 1px; padding-top: 240px; margin-left: 30px;">
                            <div style="box-sizing: border-box; font-size: 0; text-align: center; color: #000000; ">
                                <div style="display: inline-block; font-size: 12px; font-family: &quot;Helvetica&quot;; color: light-dark(#000000, #ffffff); line-height: 1.2; pointer-events: all; font-weight: bold; white-space: nowrap; ">
                                    Team Semantiek
                                </div>
                            </div>
                        </div>
                    </foreignObject>
                    <text x="30" y="244" fill="light-dark(#000000, #ffffff)" font-family="&quot;Helvetica&quot;" font-size="12px" text-anchor="middle" font-weight="bold">
                        Team Semantiek
                    </text>
                </switch>
            </g>
        </g>
        <g>
            <path d="M 140 220 C 140 214.48 144.48 210 150 210 L 230 210 C 235.52 210 240 214.48 240 220 L 240 260 C 240 265.52 235.52 270 230 270 L 150 270 C 144.48 270 140 265.52 140 260 L 140 220 Z" fill="#ffffff" stroke="none" pointer-events="all" style="fill: light-dark(#ffffff, var(--ge-dark-color, #121212));"/>
            <path d="M 142 221 L 142 259 C 142 263.97 146.03 268 151 268 L 229 268 C 233.97 268 238 263.97 238 259 L 238 221 C 238 216.03 233.97 212 229 212 L 151 212 C 146.03 212 142 216.03 142 221" fill="transparent" stroke="none" pointer-events="all" style="fill: transparent;"/>
            <path d="M 140 220 C 140 214.48 144.48 210 150 210 L 230 210 C 235.52 210 240 214.48 240 220 L 240 260 C 240 265.52 235.52 270 230 270 L 150 270 C 144.48 270 140 265.52 140 260 L 140 220 Z" fill="none" stroke="#000000" stroke-miterlimit="10" pointer-events="all" style="stroke: light-dark(rgb(0, 0, 0), rgb(255, 255, 255));"/>
        </g>
        <g>
            <g transform="translate(-0.5 -0.5)">
                <switch>
                    <foreignObject style="overflow: visible; text-align: left;" pointer-events="none" width="100%" height="100%" requiredFeatures="http://www.w3.org/TR/SVG11/feature#Extensibility">
                        <div xmlns="http://www.w3.org/1999/xhtml" style="display: flex; align-items: unsafe center; justify-content: unsafe center; width: 92px; height: 1px; padding-top: 240px; margin-left: 144px;">
                            <div style="box-sizing: border-box; font-size: 0; text-align: center; color: #000000; ">
                                <div style="display: inline-block; font-size: 12px; font-family: &quot;Helvetica&quot;; color: light-dark(#000000, #ffffff); line-height: 1.2; pointer-events: all; white-space: normal; word-wrap: normal; ">
                                    Voer desk research uit
                                </div>
                            </div>
                        </div>
                    </foreignObject>
                    <text x="190" y="244" fill="light-dark(#000000, #ffffff)" font-family="&quot;Helvetica&quot;" font-size="12px" text-anchor="middle">
                        Voer desk resea...
                    </text>
                </switch>
            </g>
        </g>
        <g>
            <path d="M 260 220 C 260 214.48 264.48 210 270 210 L 350 210 C 355.52 210 360 214.48 360 220 L 360 260 C 360 265.52 355.52 270 350 270 L 270 270 C 264.48 270 260 265.52 260 260 L 260 220 Z" fill="#ffffff" stroke="none" pointer-events="all" style="fill: light-dark(#ffffff, var(--ge-dark-color, #121212));"/>
            <path d="M 262 221 L 262 259 C 262 263.97 266.03 268 271 268 L 349 268 C 353.97 268 358 263.97 358 259 L 358 221 C 358 216.03 353.97 212 349 212 L 271 212 C 266.03 212 262 216.03 262 221" fill="transparent" stroke="none" pointer-events="all" style="fill: transparent;"/>
            <path d="M 260 220 C 260 214.48 264.48 210 270 210 L 350 210 C 355.52 210 360 214.48 360 220 L 360 260 C 360 265.52 355.52 270 350 270 L 270 270 C 264.48 270 260 265.52 260 260 L 260 220 Z" fill="none" stroke="#000000" stroke-miterlimit="10" pointer-events="all" style="stroke: light-dark(rgb(0, 0, 0), rgb(255, 255, 255));"/>
        </g>
        <g>
            <g transform="translate(-0.5 -0.5)">
                <switch>
                    <foreignObject style="overflow: visible; text-align: left;" pointer-events="none" width="100%" height="100%" requiredFeatures="http://www.w3.org/TR/SVG11/feature#Extensibility">
                        <div xmlns="http://www.w3.org/1999/xhtml" style="display: flex; align-items: unsafe center; justify-content: unsafe center; width: 92px; height: 1px; padding-top: 240px; margin-left: 264px;">
                            <div style="box-sizing: border-box; font-size: 0; text-align: center; color: #000000; ">
                                <div style="display: inline-block; font-size: 12px; font-family: &quot;Helvetica&quot;; color: light-dark(#000000, #ffffff); line-height: 1.2; pointer-events: all; white-space: normal; word-wrap: normal; ">
                                    Stel begrippen voor
                                </div>
                            </div>
                        </div>
                    </foreignObject>
                    <text x="310" y="244" fill="light-dark(#000000, #ffffff)" font-family="&quot;Helvetica&quot;" font-size="12px" text-anchor="middle">
                        Stel begrippen...
                    </text>
                </switch>
            </g>
        </g>
        <g>
            <path d="M 440 220 C 440 214.48 444.48 210 450 210 L 530 210 C 535.52 210 540 214.48 540 220 L 540 260 C 540 265.52 535.52 270 530 270 L 450 270 C 444.48 270 440 265.52 440 260 L 440 220 Z" fill="#ffffff" stroke="none" pointer-events="all" style="fill: light-dark(#ffffff, var(--ge-dark-color, #121212));"/>
            <path d="M 442 221 L 442 259 C 442 263.97 446.03 268 451 268 L 529 268 C 533.97 268 538 263.97 538 259 L 538 221 C 538 216.03 533.97 212 529 212 L 451 212 C 446.03 212 442 216.03 442 221" fill="transparent" stroke="none" pointer-events="all" style="fill: transparent;"/>
            <path d="M 440 220 C 440 214.48 444.48 210 450 210 L 530 210 C 535.52 210 540 214.48 540 220 L 540 260 C 540 265.52 535.52 270 530 270 L 450 270 C 444.48 270 440 265.52 440 260 L 440 220 Z" fill="none" stroke="#000000" stroke-miterlimit="10" pointer-events="all" style="stroke: light-dark(rgb(0, 0, 0), rgb(255, 255, 255));"/>
        </g>
        <g>
            <g transform="translate(-0.5 -0.5)">
                <switch>
                    <foreignObject style="overflow: visible; text-align: left;" pointer-events="none" width="100%" height="100%" requiredFeatures="http://www.w3.org/TR/SVG11/feature#Extensibility">
                        <div xmlns="http://www.w3.org/1999/xhtml" style="display: flex; align-items: unsafe center; justify-content: unsafe center; width: 92px; height: 1px; padding-top: 240px; margin-left: 444px;">
                            <div style="box-sizing: border-box; font-size: 0; text-align: center; color: #000000; ">
                                <div style="display: inline-block; font-size: 12px; font-family: &quot;Helvetica&quot;; color: light-dark(#000000, #ffffff); line-height: 1.2; pointer-events: all; white-space: normal; word-wrap: normal; ">
                                    Publiceer begrippen
                                </div>
                            </div>
                        </div>
                    </foreignObject>
                    <text x="490" y="244" fill="light-dark(#000000, #ffffff)" font-family="&quot;Helvetica&quot;" font-size="12px" text-anchor="middle">
                        Publiceer begri...
                    </text>
                </switch>
            </g>
        </g>
        <g>
            <path d="M 40 300 L 20 300 L 20 420 L 40 420" fill="#ffffff" stroke="#000000" stroke-miterlimit="10" pointer-events="all" style="fill: light-dark(#ffffff, var(--ge-dark-color, #121212)); stroke: light-dark(rgb(0, 0, 0), rgb(255, 255, 255));"/>
            <path d="M 40 300 L 580 300 L 580 420 L 40 420" fill="none" stroke="#000000" stroke-miterlimit="10" pointer-events="none" style="stroke: light-dark(rgb(0, 0, 0), rgb(255, 255, 255));"/>
            <path d="M 40 300 L 40 420" fill="none" stroke="#000000" stroke-miterlimit="10" pointer-events="none" style="stroke: light-dark(rgb(0, 0, 0), rgb(255, 255, 255));"/>
        </g>
        <g>
            <g transform="translate(-0.5 -0.5)rotate(-90 30 360)">
                <switch>
                    <foreignObject style="overflow: visible; text-align: left;" pointer-events="none" width="100%" height="100%" requiredFeatures="http://www.w3.org/TR/SVG11/feature#Extensibility">
                        <div xmlns="http://www.w3.org/1999/xhtml" style="display: flex; align-items: unsafe center; justify-content: unsafe center; width: 1px; height: 1px; padding-top: 360px; margin-left: 30px;">
                            <div style="box-sizing: border-box; font-size: 0; text-align: center; color: #000000; ">
                                <div style="display: inline-block; font-size: 12px; font-family: &quot;Helvetica&quot;; color: light-dark(#000000, #ffffff); line-height: 1.2; pointer-events: all; font-weight: bold; white-space: nowrap; ">
                                    Domeinexpert
                                </div>
                            </div>
                        </div>
                    </foreignObject>
                    <text x="30" y="364" fill="light-dark(#000000, #ffffff)" font-family="&quot;Helvetica&quot;" font-size="12px" text-anchor="middle" font-weight="bold">
                        Domeinexpert
                    </text>
                </switch>
            </g>
        </g>
        <g>
            <path d="M 200 340 C 200 334.48 204.48 330 210 330 L 290 330 C 295.52 330 300 334.48 300 340 L 300 380 C 300 385.52 295.52 390 290 390 L 210 390 C 204.48 390 200 385.52 200 380 L 200 340 Z" fill="#ffffff" stroke="none" pointer-events="all" style="fill: light-dark(#ffffff, var(--ge-dark-color, #121212));"/>
            <path d="M 202 341 L 202 379 C 202 383.97 206.03 388 211 388 L 289 388 C 293.97 388 298 383.97 298 379 L 298 341 C 298 336.03 293.97 332 289 332 L 211 332 C 206.03 332 202 336.03 202 341" fill="transparent" stroke="none" pointer-events="all" style="fill: transparent;"/>
            <path d="M 200 340 C 200 334.48 204.48 330 210 330 L 290 330 C 295.52 330 300 334.48 300 340 L 300 380 C 300 385.52 295.52 390 290 390 L 210 390 C 204.48 390 200 385.52 200 380 L 200 340 Z" fill="none" stroke="#000000" stroke-miterlimit="10" pointer-events="all" style="stroke: light-dark(rgb(0, 0, 0), rgb(255, 255, 255));"/>
        </g>
        <g>
            <g transform="translate(-0.5 -0.5)">
                <switch>
                    <foreignObject style="overflow: visible; text-align: left;" pointer-events="none" width="100%" height="100%" requiredFeatures="http://www.w3.org/TR/SVG11/feature#Extensibility">
                        <div xmlns="http://www.w3.org/1999/xhtml" style="display: flex; align-items: unsafe center; justify-content: unsafe center; width: 92px; height: 1px; padding-top: 360px; margin-left: 204px;">
                            <div style="box-sizing: border-box; font-size: 0; text-align: center; color: #000000; ">
                                <div style="display: inline-block; font-size: 12px; font-family: &quot;Helvetica&quot;; color: light-dark(#000000, #ffffff); line-height: 1.2; pointer-events: all; white-space: normal; word-wrap: normal; ">
                                    Beantwoord vragen
                                </div>
                            </div>
                        </div>
                    </foreignObject>
                    <text x="250" y="364" fill="light-dark(#000000, #ffffff)" font-family="&quot;Helvetica&quot;" font-size="12px" text-anchor="middle">
                        Beantwoord vrag...
                    </text>
                </switch>
            </g>
        </g>
        <g>
            <path d="M 40 420 L 20 420 L 20 540 L 40 540" fill="#ffffff" stroke="#000000" stroke-miterlimit="10" pointer-events="all" style="fill: light-dark(#ffffff, var(--ge-dark-color, #121212)); stroke: light-dark(rgb(0, 0, 0), rgb(255, 255, 255));"/>
            <path d="M 40 420 L 580 420 L 580 540 L 40 540" fill="none" stroke="#000000" stroke-miterlimit="10" pointer-events="none" style="stroke: light-dark(rgb(0, 0, 0), rgb(255, 255, 255));"/>
            <path d="M 40 420 L 40 540" fill="none" stroke="#000000" stroke-miterlimit="10" pointer-events="none" style="stroke: light-dark(rgb(0, 0, 0), rgb(255, 255, 255));"/>
        </g>
        <g>
            <g transform="translate(-0.5 -0.5)rotate(-90 30 480)">
                <switch>
                    <foreignObject style="overflow: visible; text-align: left;" pointer-events="none" width="100%" height="100%" requiredFeatures="http://www.w3.org/TR/SVG11/feature#Extensibility">
                        <div xmlns="http://www.w3.org/1999/xhtml" style="display: flex; align-items: unsafe center; justify-content: unsafe center; width: 1px; height: 1px; padding-top: 480px; margin-left: 30px;">
                            <div style="box-sizing: border-box; font-size: 0; text-align: center; color: #000000; ">
                                <div style="display: inline-block; font-size: 12px; font-family: &quot;Helvetica&quot;; color: light-dark(#000000, #ffffff); line-height: 1.2; pointer-events: all; font-weight: bold; white-space: nowrap; ">
                                    Data-eigenaar
                                </div>
                            </div>
                        </div>
                    </foreignObject>
                    <text x="30" y="484" fill="light-dark(#000000, #ffffff)" font-family="&quot;Helvetica&quot;" font-size="12px" text-anchor="middle" font-weight="bold">
                        Data-eigenaar
                    </text>
                </switch>
            </g>
        </g>
        <g>
            <path d="M 380 460 C 380 454.48 384.48 450 390 450 L 470 450 C 475.52 450 480 454.48 480 460 L 480 500 C 480 505.52 475.52 510 470 510 L 390 510 C 384.48 510 380 505.52 380 500 L 380 460 Z" fill="#ffffff" stroke="none" pointer-events="all" style="fill: light-dark(#ffffff, var(--ge-dark-color, #121212));"/>
            <path d="M 382 461 L 382 499 C 382 503.97 386.03 508 391 508 L 469 508 C 473.97 508 478 503.97 478 499 L 478 461 C 478 456.03 473.97 452 469 452 L 391 452 C 386.03 452 382 456.03 382 461" fill="transparent" stroke="none" pointer-events="all" style="fill: transparent;"/>
            <path d="M 380 460 C 380 454.48 384.48 450 390 450 L 470 450 C 475.52 450 480 454.48 480 460 L 480 500 C 480 505.52 475.52 510 470 510 L 390 510 C 384.48 510 380 505.52 380 500 L 380 460 Z" fill="none" stroke="#000000" stroke-miterlimit="10" pointer-events="all" style="stroke: light-dark(rgb(0, 0, 0), rgb(255, 255, 255));"/>
        </g>
        <g>
            <g transform="translate(-0.5 -0.5)">
                <switch>
                    <foreignObject style="overflow: visible; text-align: left;" pointer-events="none" width="100%" height="100%" requiredFeatures="http://www.w3.org/TR/SVG11/feature#Extensibility">
                        <div xmlns="http://www.w3.org/1999/xhtml" style="display: flex; align-items: unsafe center; justify-content: unsafe center; width: 92px; height: 1px; padding-top: 480px; margin-left: 384px;">
                            <div style="box-sizing: border-box; font-size: 0; text-align: center; color: #000000; ">
                                <div style="display: inline-block; font-size: 12px; font-family: &quot;Helvetica&quot;; color: light-dark(#000000, #ffffff); line-height: 1.2; pointer-events: all; white-space: normal; word-wrap: normal; ">
                                    Beoordeel begrippen
                                </div>
                            </div>
                        </div>
                    </foreignObject>
                    <text x="430" y="484" fill="light-dark(#000000, #ffffff)" font-family="&quot;Helvetica&quot;" font-size="12px" text-anchor="middle">
                        Beoordeel begri...
                    </text>
                </switch>
            </g>
        </g>
        <g>
            <path d="M 160 150 L 160 170 Q 160 180 160 190 L 160 201.88" fill="none" stroke="#000000" stroke-miterlimit="10" pointer-events="stroke" style="stroke: light-dark(rgb(0, 0, 0), rgb(255, 255, 255));"/>
            <path d="M 160 208.88 L 157.67 201.88 L 162.33 201.88 Z" fill="#000000" stroke="#000000" stroke-miterlimit="10" pointer-events="all" style="fill: light-dark(rgb(0, 0, 0), rgb(255, 255, 255)); stroke: light-dark(rgb(0, 0, 0), rgb(255, 255, 255));"/>
        </g>
        <g>
            <path d="M 220 270 L 220 290 Q 220 300 220 310 L 220 321.88" fill="none" stroke="#000000" stroke-miterlimit="10" pointer-events="stroke" style="stroke: light-dark(rgb(0, 0, 0), rgb(255, 255, 255));"/>
            <path d="M 220 328.88 L 217.67 321.88 L 222.33 321.88 Z" fill="#000000" stroke="#000000" stroke-miterlimit="10" pointer-events="all" style="fill: light-dark(rgb(0, 0, 0), rgb(255, 255, 255)); stroke: light-dark(rgb(0, 0, 0), rgb(255, 255, 255));"/>
        </g>
        <g>
            <path d="M 280 330 L 280 310 Q 280 300 280 290 L 280 278.12" fill="none" stroke="#000000" stroke-miterlimit="10" pointer-events="stroke" style="stroke: light-dark(rgb(0, 0, 0), rgb(255, 255, 255));"/>
            <path d="M 280 271.12 L 282.33 278.12 L 277.67 278.12 Z" fill="#000000" stroke="#000000" stroke-miterlimit="10" pointer-events="all" style="fill: light-dark(rgb(0, 0, 0), rgb(255, 255, 255)); stroke: light-dark(rgb(0, 0, 0), rgb(255, 255, 255));"/>
        </g>
        <g>
            <path d="M 340 210 L 340 190 Q 340 180 340 170 L 340 158.12" fill="none" stroke="#000000" stroke-miterlimit="10" pointer-events="stroke" style="stroke: light-dark(rgb(0, 0, 0), rgb(255, 255, 255));"/>
            <path d="M 340 151.12 L 342.33 158.12 L 337.67 158.12 Z" fill="#000000" stroke="#000000" stroke-miterlimit="10" pointer-events="all" style="fill: light-dark(rgb(0, 0, 0), rgb(255, 255, 255)); stroke: light-dark(rgb(0, 0, 0), rgb(255, 255, 255));"/>
        </g>
        <g>
            <path d="M 400 150 L 400 290 Q 400 300 400 310 L 400 441.88" fill="none" stroke="#000000" stroke-miterlimit="10" pointer-events="stroke" style="stroke: light-dark(rgb(0, 0, 0), rgb(255, 255, 255));"/>
            <path d="M 400 448.88 L 397.67 441.88 L 402.33 441.88 Z" fill="#000000" stroke="#000000" stroke-miterlimit="10" pointer-events="all" style="fill: light-dark(rgb(0, 0, 0), rgb(255, 255, 255)); stroke: light-dark(rgb(0, 0, 0), rgb(255, 255, 255));"/>
        </g>
        <g>
            <path d="M 460 450 L 460 370 Q 460 360 460 350 L 460 278.12" fill="none" stroke="#000000" stroke-miterlimit="10" pointer-events="stroke" style="stroke: light-dark(rgb(0, 0, 0), rgb(255, 255, 255));"/>
            <path d="M 460 271.12 L 462.33 278.12 L 457.67 278.12 Z" fill="#000000" stroke="#000000" stroke-miterlimit="10" pointer-events="all" style="fill: light-dark(rgb(0, 0, 0), rgb(255, 255, 255)); stroke: light-dark(rgb(0, 0, 0), rgb(255, 255, 255));"/>
        </g>
        <g>
            <path d="M 210 0 L 380 0 L 380 0 L 390 20 L 380 40 L 380 40 L 210 40 L 220 20 Z" fill="#ffffff" stroke="#000000" stroke-miterlimit="10" pointer-events="all" style="fill: light-dark(#ffffff, var(--ge-dark-color, #121212)); stroke: light-dark(rgb(0, 0, 0), rgb(255, 255, 255));"/>
        </g>
        <g>
            <g transform="translate(-0.5 -0.5)">
                <switch>
                    <foreignObject style="overflow: visible; text-align: left;" pointer-events="none" width="100%" height="100%" requiredFeatures="http://www.w3.org/TR/SVG11/feature#Extensibility">
                        <div xmlns="http://www.w3.org/1999/xhtml" style="display: flex; align-items: unsafe center; justify-content: unsafe center; width: 1px; height: 1px; padding-top: 20px; margin-left: 300px;">
                            <div style="box-sizing: border-box; font-size: 0; text-align: center; color: #000000; ">
                                <div style="display: inline-block; font-size: 12px; font-family: &quot;Helvetica&quot;; color: light-dark(#000000, #ffffff); line-height: 1.2; pointer-events: all; white-space: nowrap; ">
                                    Begrip in status
                                    <div>
                                        'ingediend'
                                    </div>
                                </div>
                            </div>
                        </div>
                    </foreignObject>
                    <text x="300" y="24" fill="light-dark(#000000, #ffffff)" font-family="&quot;Helvetica&quot;" font-size="12px" text-anchor="middle">
                        Begrip in status...
                    </text>
                </switch>
            </g>
        </g>
        <g>
            <path d="M 400 0 L 570 0 L 570 0 L 580 20 L 570 40 L 570 40 L 400 40 L 410 20 Z" fill="#ffffff" stroke="#000000" stroke-miterlimit="10" pointer-events="all" style="fill: light-dark(#ffffff, var(--ge-dark-color, #121212)); stroke: light-dark(rgb(0, 0, 0), rgb(255, 255, 255));"/>
        </g>
        <g>
            <g transform="translate(-0.5 -0.5)">
                <switch>
                    <foreignObject style="overflow: visible; text-align: left;" pointer-events="none" width="100%" height="100%" requiredFeatures="http://www.w3.org/TR/SVG11/feature#Extensibility">
                        <div xmlns="http://www.w3.org/1999/xhtml" style="display: flex; align-items: unsafe center; justify-content: unsafe center; width: 1px; height: 1px; padding-top: 20px; margin-left: 490px;">
                            <div style="box-sizing: border-box; font-size: 0; text-align: center; color: #000000; ">
                                <div style="display: inline-block; font-size: 12px; font-family: &quot;Helvetica&quot;; color: light-dark(#000000, #ffffff); line-height: 1.2; pointer-events: all; white-space: nowrap; ">
                                    Begrip in status
                                    <div>
                                        'geldig'
                                    </div>
                                </div>
                            </div>
                        </div>
                    </foreignObject>
                    <text x="490" y="24" fill="light-dark(#000000, #ffffff)" font-family="&quot;Helvetica&quot;" font-size="12px" text-anchor="middle">
                        Begrip in status...
                    </text>
                </switch>
            </g>
        </g>
    </g>
    <switch>
        <g requiredFeatures="http://www.w3.org/TR/SVG11/feature#Extensibility"/>
        <a transform="translate(0,-5)" xlink:href="https://www.drawio.com/doc/faq/svg-export-text-problems" target="_blank">
            <text text-anchor="middle" font-size="10px" x="50%" y="100%">
                Text is not SVG - cannot display
            </text>
        </a>
    </switch>
</svg>